<svg xmlns="http://www.w3.org/2000/svg" version="1.1" xmlns:xlink="http://www.w3.org/1999/xlink" viewBox="0 0 200 200" width="200" height="200"><rect width="200" height="200" fill="url('#gradient')"></rect><defs><linearGradient id="gradient" gradientTransform="rotate(0 0.5 0.5)"><stop offset="0%" stop-color="#e0e5ec"></stop><stop offset="100%" stop-color="#3b5bdb"></stop></linearGradient></defs><g><g fill="#23262d" transform="matrix(7.26384236453202,0,0,7.26384236453202,24.81766999781425,138.3562891371027)" stroke="#405865" stroke-width="0"><path d="M10.17 0L6.88 0Q6.70-0.32 6.56-0.95L6.56-0.95Q5.65 0.20 4.02 0.20L4.02 0.20Q2.53 0.20 1.48-0.71Q0.44-1.61 0.44-2.98L0.44-2.98Q0.44-4.70 1.71-5.58Q2.98-6.46 5.40-6.46L5.40-6.46L6.42-6.46L6.42-7.01Q6.42-8.47 5.16-8.47L5.16-8.47Q3.98-8.47 3.98-7.31L3.98-7.31L0.69-7.31Q0.69-8.85 2.00-9.80Q3.30-10.76 5.32-10.76Q7.34-10.76 8.52-9.78Q9.69-8.79 9.72-7.07L9.72-7.07L9.72-2.39Q9.74-0.94 10.17-0.17L10.17-0.17L10.17 0ZM4.81-2.15L4.81-2.15Q5.43-2.15 5.83-2.41Q6.24-2.68 6.42-3.01L6.42-3.01L6.42-4.70L5.46-4.70Q3.74-4.70 3.74-3.15L3.74-3.15Q3.74-2.71 4.04-2.43Q4.35-2.15 4.81-2.15ZM17.07-2.97L17.07-2.97Q17.07-3.39 16.63-3.64Q16.19-3.90 14.96-4.17Q13.73-4.44 12.93-4.89Q12.13-5.33 11.71-5.97Q11.29-6.60 11.29-7.42L11.29-7.42Q11.29-8.88 12.49-9.82Q13.69-10.76 15.63-10.76L15.63-10.76Q17.72-10.76 18.99-9.81Q20.26-8.87 20.26-7.32L20.26-7.32L16.96-7.32Q16.96-8.59 15.63-8.59L15.63-8.59Q15.11-8.59 14.76-8.31Q14.40-8.02 14.40-7.59L14.40-7.59Q14.40-7.15 14.83-6.88Q15.26-6.60 16.21-6.43Q17.15-6.25 17.86-6.01L17.86-6.01Q20.24-5.19 20.24-3.07L20.24-3.07Q20.24-1.62 18.96-0.71Q17.68 0.20 15.63 0.20L15.63 0.20Q14.28 0.20 13.21-0.29Q12.15-0.78 11.55-1.62Q10.96-2.46 10.96-3.39L10.96-3.39L14.03-3.39Q14.05-2.66 14.52-2.32Q14.99-1.98 15.72-1.98L15.72-1.98Q16.40-1.98 16.73-2.26Q17.07-2.53 17.07-2.97Z"></path></g></g><style>@media (prefers-color-scheme: light) { :root { filter: none; } }
@media (prefers-color-scheme: dark) { :root { filter: none; } }
</style></svg>